<?xml version="1.0" encoding="UTF-8" standalone="no"?>
<svg
   xmlns:dc="http://purl.org/dc/elements/1.1/"
   xmlns:cc="http://creativecommons.org/ns#"
   xmlns:rdf="http://www.w3.org/1999/02/22-rdf-syntax-ns#"
   xmlns:svg="http://www.w3.org/2000/svg"
   xmlns="http://www.w3.org/2000/svg"
   xmlns:sodipodi="http://sodipodi.sourceforge.net/DTD/sodipodi-0.dtd"
   xmlns:inkscape="http://www.inkscape.org/namespaces/inkscape"
   data-name="Layer 1"
   width="825.20213"
   height="591.41898"
   viewBox="0 0 825.20213 591.41898"
   version="1.1"
   id="svg104"
   sodipodi:docname="undraw_world.svg"
   inkscape:version="1.0 (4035a4fb49, 2020-05-01)">
  <metadata
     id="metadata110">
    <rdf:RDF>
      <cc:Work
         rdf:about="">
        <dc:format>image/svg+xml</dc:format>
        <dc:type
           rdf:resource="http://purl.org/dc/dcmitype/StillImage" />
      </cc:Work>
    </rdf:RDF>
  </metadata>
  <defs
     id="defs108" />
  <sodipodi:namedview
     inkscape:document-rotation="0"
     pagecolor="#ffffff"
     bordercolor="#666666"
     borderopacity="1"
     objecttolerance="10"
     gridtolerance="10"
     guidetolerance="10"
     inkscape:pageopacity="0"
     inkscape:pageshadow="2"
     inkscape:window-width="1920"
     inkscape:window-height="1017"
     id="namedview106"
     showgrid="false"
     inkscape:zoom="0.71015641"
     inkscape:cx="720.44371"
     inkscape:cy="393.86274"
     inkscape:window-x="-8"
     inkscape:window-y="-8"
     inkscape:window-maximized="1"
     inkscape:current-layer="svg104" />
  <path
     d="m 667.82499,376.31716 a -3.61324,3.61324 0 0 0 2.90706,-6.13407 c -0.0742,-0.366 -0.12737,-0.62878 -0.20154,-0.99475 q 0.0543,-0.11581 0.10925,-0.23144 a -9.7031,9.7031 0 0 1 17.876,0.89878 c 2.59635,7.179 5.991,14.40726 6.561,21.8966 a -28.70516,28.70516 0 0 1 -0.96247,9.83823 -115.08607,115.08607 0 0 0 12.68043,-47.26037 -111.08146,111.08146 0 0 0 -0.112,-12.41061 q -0.33489,-5.08075 -1.11483,-10.11009 a -116.41936,116.41936 0 0 0 -20.7675,-50.36176 -30.98251,30.98251 0 0 1 -12.24992,-13.95369 -23.63369,23.63369 0 0 1 -1.84668,-6.55118 c 0.62279,0.11137 1.25731,0.19237 1.882,0.2626 0.19474,0.0193 0.39969,0.0392 0.59443,0.0586 l 0.0735,0.007 a -3.5799,3.5799 0 0 0 3.20814,-5.68922 q -0.38259,-0.51834 -0.7657,-1.03621 c -0.387,-0.5328 -0.78478,-1.05577 -1.17173,-1.58848 a -1.78375,1.78375 0 0 1 -0.12638,-0.16038 c -0.44535,-0.60755 -0.891,-1.2048 -1.33637,-1.81235 a -10.3517,10.3517 0 0 1 3.54254,-3.11908 c 4.86483,-2.55314 11.30882,-0.328 14.53022,4.11493 3.23163,4.44334 3.599,10.48308 2.15829,15.77961 a -41.485,41.485 0 0 1 -6.32713,12.51228 c 0.24157,0.34072 0.49384,0.67161 0.73533,1.01232 a -117.17152,117.17152 0 0 1 11.3155,19.92258 -48.70927,48.70927 0 0 1 3.957,-22.46476 c 3.09271,-6.57809 8.56723,-11.98458 13.42656,-17.56958 5.83684,-6.70843 16.99941,-3.14247 17.55956,5.73205 q 0.008,0.12888 0.0156,0.25766 -1.04937,0.52926 -2.05883,1.13134 a -4.9011,4.9011 0 0 0 1.55911,9.00132 l 0.0991,0.0201 a -48.76709,48.76709 0 0 1 -1.62312,7.22358 -50.20985,50.20985 0 0 1 -26.43617,30.27174 c -0.41021,0.18678 -0.8102,0.374 -1.21994,0.5506 a -119.59729,119.59729 0 0 1 5.02184,30.56259 -113.43466,113.43466 0 0 1 -0.93392,18.29177 l 0.0409,-0.2143 a -29.97406,29.97406 0 0 1 11.02621,-16.813 c 8.16666,-6.09535 19.39042,-7.95739 28.11808,-12.75615 a -5.62528,5.62528 0 0 1 8.3519,5.86726 q -0.0224,0.11259 -0.0453,0.22517 a -32.92431,32.92431 0 0 0 -3.77057,1.60542 q -1.04937,0.52938 -2.05883,1.13133 a -4.90116,4.90116 0 0 0 1.55911,9.00141 l 0.0992,0.02 c 0.0714,0.0136 0.13259,0.0268 0.20391,0.0405 a -48.808,48.808 0 0 1 -9.6217,13.62515 -50.25442,50.25442 0 0 1 -37.14994,14.27914 l -0.0103,-4.8e-4 a -119.56225,119.56225 0 0 1 -9.11335,23.04815 l -28.66063,-1.33426 c -0.088,-0.32324 -0.16508,-0.65631 -0.24275,-0.97907 a -32.59881,32.59881 0 0 0 7.95257,-0.10325 c -2.005,-2.70831 -4.009,-5.43714 -6.014,-8.14536 a -1.78114,1.78114 0 0 1 -0.12638,-0.16029 c -1.01644,-1.38562 -2.04367,-2.7615 -3.06011,-4.14712 l -5e-4,-0.002 a -47.75014,47.75014 0 0 1 1.96332,-12.08589 z"
     fill="#f2f2f2"
     id="path2" />
  <path
     d="m 90.34386,128.48219 a -3.61324,3.61324 0 0 1 -3.28049,-5.94275 c 0.0514,-0.36985 0.0883,-0.63544 0.13969,-1.00529 q -0.0614,-0.11225 -0.12334,-0.22425 a -9.70311,9.70311 0 0 0 -17.78635,2.00152 c -2.14784,7.32572 -5.08937,14.74988 -5.19559,22.26013 a -28.70519,28.70519 0 0 0 1.56847,9.76 -115.08612,115.08612 0 0 1 -15.57617,-46.38666 -111.08,111.08 0 0 1 -0.655,-12.39382 q 0.0203,-5.09173 0.488,-10.15965 A -116.41941,116.41941 0 0 1 67.53933,34.84277 -30.9826,30.9826 0 0 0 78.90374,20.15889 -23.63353,23.63353 0 0 0 80.34212,13.50613 c -0.61471,0.14962 -1.243,0.26968 -1.86218,0.37837 -0.19317,0.0313 -0.3965,0.0638 -0.58967,0.09518 l -0.0729,0.01126 A -3.5799,3.5799 0 0 1 74.26385,8.5108 Q 74.6137,7.9698 74.96406,7.42926 C 75.31744,6.87357 75.68211,6.32702 76.03542,5.77142 A -1.783,1.783 0 0 0 76.15164,5.60354 C 76.55864,4.96963 76.96652,4.346 77.37349,3.71209 A -10.35181,10.35181 0 0 0 73.645,0.81784 c -5.01327,-2.24769 -11.30748,0.37131 -14.24822,5.0048 -2.95093,4.63452 -2.94443,10.68542 -1.17923,15.88282 a -41.485,41.485 0 0 0 7.0881,12.09746 c -0.22006,0.355 -0.4514,0.70083 -0.67138,1.05582 A -117.17159,117.17159 0 0 0 54.57127,55.44237 -48.70935,48.70935 0 0 0 49.2339,33.26501 C 45.74067,26.89057 39.94257,21.83265 34.74746,16.55855 c -6.24017,-6.335 -17.16108,-2.08617 -17.17187,6.806 q -1.5e-4,0.12915 3.5e-4,0.25814 1.08007,0.46341 2.12481,1.002 a -4.9011,4.9011 0 0 1 -1,9.08046 l -0.0977,0.02615 a -48.76726,48.76726 0 0 0 2.06632,7.10949 -50.20987,50.20987 0 0 0 28.256,28.58057 c 0.421,0.16108 0.83176,0.32327 1.25162,0.47418 a -119.5973,119.5973 0 0 0 -3.124,30.81447 -113.4334,113.4334 0 0 0 2.06228,18.19912 l -0.054,-0.21137 A -29.974,29.974 0 0 0 37.01735,102.5981 C 28.48969,97.01897 17.17235,95.85394 8.16486,91.60358 a -5.62528,5.62528 0 0 0 -7.97344,6.37206 q 0.0292,0.111 0.0591,0.22194 a -32.92391,32.92391 0 0 1 3.86256,1.3694 q 1.08007,0.46353 2.1248,1.002 a -4.90116,4.90116 0 0 1 -1,9.08054 l -0.0978,0.0261 c -0.0704,0.018 -0.13068,0.035 -0.201,0.053 a -48.80794,48.80794 0 0 0 10.44514,13.00466 -50.25449,50.25449 0 0 0 37.9612,11.95658 l 0.0103,-0.001 a -119.563,119.563 0 0 0 10.51995,22.44105 l 28.52344,-3.10249 c 0.0678,-0.32806 0.12422,-0.66525 0.1818,-0.99219 a -32.5995,32.5995 0 0 1 -7.94375,0.38829 c 1.83384,-2.827 3.66537,-5.67444 5.49922,-8.50137 a -1.7786,1.7786 0 0 0 0.11623,-0.1678 c 0.9289,-1.44577 1.86915,-2.88248 2.798,-4.32825 l 4e-4,-0.002 a -47.75009,47.75009 0 0 0 -2.70629,-11.94149 z"
     fill="#f2f2f2"
     id="path4" />
  <path
     d="m 484.41908,117.91186 a -10.016,10.016 0 0 1 6.38343,13.969 l 15.30646,17.01743 -8.07279,11.82394 -21.2781,-24.33548 a -10.07034,10.07034 0 0 1 7.661,-18.47489 z"
     fill="#a0616a"
     id="path6" />
  <path
     d="m 627.71527,159.69835 v 0 a -20.02625,20.02625 0 0 0 -27.60778,-6.54222 l -50.33925,31.17727 -54.30081,-46.15769 -13.51015,12.57871 59.987,77.82961 77.96532,-40.64446 c -1.81952,0.94854 10.00421,-24.66269 7.80567,-28.24122 z"
     fill="#cccccc"
     id="path8" />
  <path
     d="m 527.99196,263.36443 a -189.27007,189.27007 0 0 1 -189.308,189.308 c -104.55063,0 -189.308,-84.75749 -189.308,-189.308 a -189.24483,189.24483 0 0 1 9.65476,-59.84238 -189.50618,189.50618 0 0 1 179.65325,-129.46556 -189.24453,189.24453 0 0 1 166.93821,99.98607 -186.77361,186.77361 0 0 1 10.46447,23.10619 c 0.41,1.10421 0.80984,2.20843 1.19884,3.32331 v 0.0105 q 2.60321,7.35132 4.58557,14.97635 a -189.32006,189.32006 0 0 1 6.1209,47.90549 z"
     fill="#3f3d56"
     id="path10" />
  <path
     d="m 317.97208,135.64064 a -63.51666,63.51666 0 0 0 -55.7615,-2.28136 c -7.79648,3.393 -16.00583,9.47972 -18.6067,20.47116 10.519,-6.20795 24.13568,3.60058 26.8425,19.33555 l -0.63186,0.17419 c -1.42965,10.89863 1.76186,22.76429 7.94073,29.52228 0.81123,-7.01955 5.42678,-11.797 9.96657,-14.78135 4.53979,-2.9843 9.562,-5.15219 13.02707,-10.28189 4.10787,-6.08133 5.151,-14.96914 6.7829,-23.077 1.63192,-8.1079 4.72798,-16.82233 10.44029,-19.08158 z"
     fill="#ffffff"
     id="path12" />
  <path
     d="m 259.09042,228.38449 c -2.91326,4.375 -6.80454,7.12011 -10.29617,10.53817 -3.48109,3.42859 -6.79414,8.056 -7.48817,13.99821 -0.44177,3.80718 0.24187,7.67741 0.14712,11.52684 -0.0945,3.84917 -1.37767,8.18221 -3.99642,9.1393 -4.13328,1.49335 -7.28842,-6.18406 -11.53724,-6.72045 -3.37608,-0.42071 -6.41541,4.89049 -5.43739,9.497 0.97814,4.6065 5.57412,6.64675 8.21392,3.63888 2.38741,4.007 0.70457,11.27444 -2.88168,12.50486 -0.37873,2.52413 -0.7572,5.03773 -1.1254,7.56174 -9.06574,-6.34185 -18.22611,-12.78872 -25.9351,-22.07541 a -67.00679,67.00679 0 0 1 -15.27087,-36.09467 c -0.99907,-10.67489 0.48375,-22.88524 -4.41713,-31.099 -3.923,-6.57319 -10.654,-8.02468 -16.71184,-7.61437 -1.10421,0.0736 -2.219,0.19976 -3.32331,0.33649 a -187.23535,187.23535 0 0 1 13.55644,-31.02548 -13.2821,13.2821 0 0 0 3.397,-2.11395 c 5.63728,-4.78521 8.14036,-14.47155 12.71528,-21.171 q 0.44177,-0.64686 0.915,-1.262 c 4.68019,-6.1105 10.94835,-9.25511 17.00622,-12.1789 13.40931,-6.51 27.20763,-13.10427 41.36375,-12.19982 l -4.028,0.38913 q -7.05168,19.75116 -14.114,39.50233 -1.07283,3.0288 -2.16646,6.06839 c -2.67138,7.48805 -5.42686,15.4601 -5.01668,23.84221 0.24187,4.964 1.96657,10.26471 5.248,11.96848 3.06039,1.57756 6.40488,-0.35755 9.36012,-2.27173 1.25161,-0.79932 2.49268,-1.59863 3.74416,-2.40846 4.49082,-2.89221 9.4654,-5.858 14.20862,-3.92287 4.34358,1.76694 7.55122,7.667 8.16129,14.02992 a -28.04928,28.04928 0 0 1 -4.29106,17.61616 z"
     fill="#ffffff"
     id="path14" />
  <path
     d="M 285.7995,318.28176 Q 266.12576,306.1684 246.45187,294.05504 l 0.22263,-0.57342 c -8.15482,3.106 -11.54047,17.60169 -10.19276,29.456 1.34764,11.85442 5.91745,22.45144 8.226,34.00207 a -90.25226,90.25226 0 0 1 -3.40267,47.35761 -387.843,387.843 0 0 0 45.56027,-62.78054 -33.58822,33.58822 0 0 0 4.12118,-9.13813 c 0.83321,-3.44179 0.70508,-7.57955 -0.96357,-10.33953 a -11.5109,11.5109 0 0 0 -4.22345,-3.75734 z"
     fill="#ffffff"
     id="path16" />
  <path
     d="m 234.03564,171.3627 c -1.3927,3.13139 -1.92854,7.30684 -0.66468,10.5469 1.29075,3.309 4.01943,4.80443 6.53166,6.04952 l 7.24713,3.59224 c 2.411,1.19506 5.00969,2.40208 7.46752,1.41883 2.96442,-1.18591 5.01982,-5.83337 4.48812,-10.14785 -0.56592,-4.59118 -3.45988,-7.7493 -6.13638,-10.43868 q -5.61837,-5.64531 -11.23667,-11.29061 l -2.11089,2.58543 a -28.19193,28.19193 0 0 0 -5.58581,7.68422 z"
     fill="#ffffff"
     id="path18" />
  <path
     d="m 489.14169,220.44404 q 4.89062,1.15159 9.781,2.30319 c -0.568,11.01151 -6.02628,21.20266 -13.34615,24.894 -3.05,1.53558 -6.447,2.10342 -8.97113,4.9747 -2.28213,2.60822 -3.43911,6.66768 -4.50135,10.54856 q -2.79233,10.15963 -5.58465,20.319 c -1.99815,7.29894 -4.56426,15.40772 -9.75978,18.037 -4.45924,2.26108 -9.56,-0.50493 -12.9886,-5.143 -3.42859,-4.638 -5.52149,-10.87466 -7.55135,-16.95345 0.1262,6.6257 -2.95524,13.12534 -7.31986,15.42852 -4.37516,2.30319 -9.69688,0.22082 -12.62054,-4.92193 -2.10342,-3.69152 -2.97629,-8.56108 -5.03773,-12.3051 -2.06132,-3.744 -6.38383,-5.88956 -8.63451,-2.37688 -1.48295,2.3349 -1.29371,5.91061 -2.02986,8.87651 -1.14633,4.60637 -4.6169,7.49858 -8.056,7.7511 -3.42859,0.25241 -6.77309,-1.72482 -9.64424,-4.40673 -5.92114,-5.55307 -10.28577,-14.36628 -11.979,-24.15777 -0.74667,-4.36463 -0.957,-9.11826 0.33662,-13.20956 1.29359,-4.091 4.41714,-7.24617 7.51964,-6.46792 2.04038,-4.31211 -1.98763,-10.03336 -5.61611,-9.52856 -3.639,0.5048 -6.4891,4.40661 -9.47592,7.40409 -2.9763,2.99735 -7.141,5.17433 -10.13851,2.198 0.0211,2.766 -2.22963,4.596 -4.17526,4.36462 -1.93525,-0.22082 -3.65994,-1.77733 -5.43727,-2.88168 -6.8677,-4.28053 -15.58643,-1.44083 -20.46638,6.65729 3.05,-12.97808 7.51976,-27.87034 16.89041,-30.92033 3.82837,-1.25148 8.00363,-0.22082 11.62146,-2.38741 6.405,-3.83864 7.69859,-18.34178 2.16658,-24.326 0.70457,5.65808 0.568,12.26286 -2.419,16.13321 -2.98683,3.87036 -9.25511,1.34609 -8.87638,-4.37515 -0.86248,3.94391 -5.15341,4.54346 -7.13063,1.5144 -1.98775,-3.0288 -1.81944,-7.98232 -0.41019,-11.60028 1.40925,-3.61796 3.80719,-6.21564 6.13143,-8.70819 4.99563,-5.35318 10.06495,-10.76951 15.84936,-14.13507 5.79494,-3.36542 12.48381,-4.50122 18.28914,-1.15673 3.06065,1.76681 5.753,4.71165 8.87651,6.26816 3.12368,1.567 7.08852,1.36728 9.16049,-2.29279 2.32424,-4.08064 1.23042,-10.13851 2.0929,-15.23928 1.546,-9.01311 10.55909,-13.23048 15.55472,-7.27789 -3.7335,-0.957 -7.59333,3.46018 -8.05615,8.81348 -0.47322,5.35317 2.22975,10.759 5.84758,12.37866 6.07892,2.69231 12.03151,-4.08078 16.62761,-10.34893 q 7.19361,-9.844 14.40839,-19.67748 a -23.78177,23.78177 0 0 1 2.57664,-3.13407 -8.291,8.291 0 0 1 11.327,-0.23135 c 4.8589,3.96484 7.14116,12.09468 11.12719,17.68972 5.78441,8.12971 14.44,10.10693 22.496,11.6845 q 9.00784,1.75107 18.02648,3.52321 a -186.77361,186.77361 0 0 1 10.46447,23.10619 c -10.18068,4.32251 -19.57257,12.41024 -26.94507,23.29542 z"
     fill="#ffffff"
     id="path20" />
  <path
     d="m 508.55636,346.98599 a -188.54566,188.54566 0 0 1 -15.67052,26.21909 c -3.78613,-1.61968 -7.85625,1.27253 -11.40051,3.986 -3.702,2.83957 -8.15076,5.60558 -11.94742,3.01841 -3.88076,-2.65033 -5.13236,-10.06482 -3.90181,-15.944 1.23042,-5.8685 4.30133,-10.53816 7.27776,-14.97635 3.15513,-4.71165 6.53108,-9.60213 10.91676,-11.4321 4.39621,-1.83 10.04377,0.7572 11.327,7.00443 l 3.113,-0.10527 c -1.74588,-2.3978 -0.83077,-7.362 1.51453,-8.23485 2.70284,-1.02013 5.04826,2.69231 6.64676,5.97377 0.71517,1.48286 1.44081,2.97637 2.12445,4.49087 z"
     fill="#ffffff"
     id="path22" />
  <path
     d="m 389.32843,302.56256 c -6.69134,0.4208 -11.99157,-7.81664 -15.51364,-15.92031 -3.52206,-8.10375 -6.73574,-17.37094 -12.77336,-21.49573 -3.44981,-2.35695 -7.3829,-2.68032 -11.12485,-3.82245 -3.742,-1.142 -7.65866,-3.50524 -9.44741,-8.31792 l -4.2446,-1.71473 c -5.60569,3.152 -11.28535,6.36156 -16.11556,11.4909 a -36.01807,36.01807 0 0 0 -9.60269,20.99346 c -0.81084,8.4961 2.18328,17.96965 7.77788,21.16122 4.42058,2.52189 9.56739,0.93232 14.04519,3.24105 5.59453,2.88442 8.916,11.2636 10.17332,19.53684 1.25732,8.27324 0.93866,16.87112 1.83819,25.23825 0.89953,8.36713 3.37871,17.07349 8.50933,21.36133 6.42036,5.36571 15.8412,0.907 18.72178,-8.86044 1.413,-4.79111 1.36427,-10.19733 2.42106,-15.1707 1.861,-8.75838 6.88293,-15.25634 10.866,-22.44083 3.98315,-7.1844 7.11846,-16.94226 4.46936,-25.27994 z"
     fill="#ffffff"
     id="path24" />
  <path
     d="m 323.20801,216.49949 a -17.86027,17.86027 0 0 1 1.74249,1.84977 -6.0774,6.0774 0 0 1 -0.107,6.27583 -5.83861,5.83861 0 0 0 4.18126,-2.12511 -26.87915,26.87915 0 0 0 3.20585,-4.51587 c 0.68252,-1.11285 1.40836,-2.61751 0.94522,-3.93927 -0.3161,-0.90214 -1.06361,-1.287 -1.58767,-1.96542 -0.83059,-1.07533 -1.03646,-2.78336 -1.46641,-4.25929 -0.92846,-3.18785 -3.15264,-5.53192 -5.56707,-5.86707 l 0.33533,0.0642 c -1.00855,0.34549 -1.7128,1.94712 -1.48986,3.38824 0.20313,1.31242 1.04646,2.402 0.96255,3.74051 -0.12061,1.92473 -2.04418,2.828 -2.163,4.753 a -3.67445,3.67445 0 0 0 1.00831,2.60052 z"
     fill="#ffffff"
     id="path26" />
  <path
     d="m 311.74355,183.791 c 0.01,-0.003 0.0199,-0.003 0.0299,-0.006 a -5.35694,5.35694 0 0 0 0.57089,-0.60813 z"
     fill="#e6e6e6"
     id="path28" />
  <path
     d="m 313.75033,192.82563 c 1.47948,-0.95135 2.30574,-3.58245 1.81653,-5.7846 -0.48608,-2.18856 -2.20646,-3.66 -3.79343,-3.25583 a -3.86646,3.86646 0 0 1 -3.59495,1.05839 c -0.98109,-0.25259 -2.0582,-0.90305 -2.90906,-0.16386 a -4.40412,4.40412 0 0 0 -0.9909,1.93479 q -0.47242,1.45027 -0.9449,2.90028 a -1.83,1.83 0 0 0 -0.11163,1.09908 -0.93106,0.93106 0 0 0 0.714,0.56762 q 2.83452,0.83566 5.669,1.67123 c 1.37703,0.40594 2.8639,0.7971 4.14534,-0.0271 z"
     fill="#ffffff"
     id="path30" />
  <path
     d="m 456.40624,317.55749 q -1.31031,-2.14511 -2.62049,-4.29038 a -14.334,14.334 0 0 0 -3.45325,-4.33578 -3.05981,3.05981 0 0 0 -4.356,0.43639 l 0.1064,0.81686 c 1.991,2.498 4.09755,5.2729 4.60255,8.98025 0.19918,1.46151 0.12986,2.97414 0.3045,4.442 0.17464,1.46786 0.671,2.9901 1.61837,3.623 1.37543,0.91891 2.99049,-0.43593 3.96942,-2.08913 a -7.19317,7.19317 0 0 0 1.11451,-4.57885 -8.02966,8.02966 0 0 0 -1.28601,-3.00436 z"
     fill="#ffffff"
     id="path32" />
  <path
     d="m 495.28154,262.94003 q 0.37892,-2.48492 0.758,-4.96988 a -14.334,14.334 0 0 0 0.15018,-5.54088 -3.05981,3.05981 0 0 0 -3.61357,-2.47124 l -0.44463,0.69346 c -0.0854,3.1932 -0.26073,6.67273 -2.26178,9.83426 -0.78878,1.2464 -1.8159,2.359 -2.62754,3.59445 -0.81164,1.23545 -1.41218,2.71968 -1.09493,3.814 0.46053,1.58874 2.56861,1.59226 4.38215,0.95787 a -7.19314,7.19314 0 0 0 3.80128,-2.78536 -8.02963,8.02963 0 0 0 0.95084,-3.12668 z"
     fill="#e6e6e6"
     id="path34" />
  <path
     d="m 470.10902,319.41863 c 0.42709,-1.2275 -0.18949,-2.63572 -0.31972,-3.99283 a -8.76489,8.76489 0 0 1 1.33382,-4.96911 -16.1539,16.1539 0 0 0 2.07833,-4.55638 -3.81152,3.81152 0 0 0 -0.0997,-2.23133 c -0.28914,-0.64955 -0.9895,-0.94582 -1.39116,-0.43149 l 0.85964,0.55366 a -7.82867,7.82867 0 0 0 -3.48867,0.16894 -4.3178,4.3178 0 0 0 -2.64407,2.98058 -18.44055,18.44055 0 0 1 -0.69335,3.09241 c -0.51278,1.054 -1.50541,1.4046 -2.12918,2.32976 a -5.57021,5.57021 0 0 0 0.0877,5.29184 -6.1768,6.1768 0 0 0 3.4939,2.74757 c 1.04977,0.37666 2.43215,0.39651 2.91243,-0.98362 z"
     fill="#ffffff"
     id="path36" />
  <path
     d="m 494.51108,326.78103 a -12.00485,12.00485 0 0 0 1.512,2.77512 c 1.16822,1.17675 2.75595,0.4536 4.17324,0.16757 a -7.21546,7.21546 0 0 1 6.86407,2.75319 -17.47133,17.47133 0 0 0 -10.0484,-12.53642 c -3.341,-1.362 -6.85973,-1.49359 -10.33414,-1.616 l -0.60013,0.1538 c 1.52923,4.45156 6.33136,4.35196 8.43336,8.30274 z"
     fill="#ffffff"
     id="path38" />
  <path
     d="m 391.15891,335.88608 0.009,0.0194 q 0.0874,-0.168 0.17459,-0.33624 z"
     fill="#e6e6e6"
     id="path40" />
  <path
     d="m 387.45698,343.05149 a -32.88905,32.88905 0 0 0 -2.07687,4.56227 -39.71126,39.71126 0 0 0 -1.50522,7.80631 c -0.188,1.50447 -0.246,3.42594 0.69654,4.15905 a -1.337,1.337 0 0 0 1.74906,-0.23754 -6.91827,6.91827 0 0 0 1.26793,-1.88467 -43.41661,43.41661 0 0 0 4.28028,-10.15882 c 0.90215,-3.74378 0.89368,-8.15134 -0.701,-11.39266 q -1.85526,3.57312 -3.71072,7.14606 z"
     fill="#ffffff"
     id="path42" />
  <path
     d="m 351.74439,152.14932 a -4.21456,4.21456 0 0 0 4.54215,0.88647 -14.99873,14.99873 0 0 0 4.27371,-2.823 -10.0548,10.0548 0 0 0 2.59074,-2.82624 -5.73178,5.73178 0 0 0 0.53,-4.36641 c -0.58529,-1.71175 -2.07037,-2.28553 -3.38049,-2.67406 q -3.14617,-0.933 -6.29241,-1.86591 l 1.51726,-1.36753 c -1.561,-0.83779 -3.288,0.71707 -4.26378,2.64207 a -14.22382,14.22382 0 0 0 -1.29432,3.98431 c -0.52223,3.02147 -0.0116,6.61953 1.77714,8.4103 z"
     fill="#e6e6e6"
     id="path44" />
  <path
     d="m 388.77481,139.71785 a -3.46486,3.46486 0 0 0 4.72246,0.38419 -5.27918,5.27918 0 0 0 2.08866,-3.76209 c 0.14845,-1.64984 -0.66729,-3.48358 -1.8324,-3.626 l 0.26665,-1.54471 c -2.24437,-0.4053 -5.00619,-0.48651 -6.20894,2.239 a -6.399,6.399 0 0 0 0.96357,6.30961 z"
     fill="#e6e6e6"
     id="path46" />
  <path
     d="m 383.82817,57.57403 a -49.9257,49.9257 0 0 0 -55.20724,44.0149 c -3.09067,27.39943 11.34417,86.89808 37.66188,111.52805 12.39171,-47.189 55.81463,-75.17882 61.56026,-100.33572 6.13939,-26.88101 -16.61547,-52.11655 -44.0149,-55.20723 z"
     fill="#bc52e8"
     id="path48" />
  <circle
     id="a2705e7e-530b-43fb-b0c6-4087ca2c8018"
     data-name="b262ea8c-1946-46c9-a449-3a1996c39394"
     cx="374.72809"
     cy="102.20342"
     r="16.282419"
     fill="#ffffff" />
  <circle
     id="bb575e01-1284-49d3-8651-037e5b7ffa75"
     data-name="bcc29a3a-8123-4529-80aa-6f70df2823cf"
     cx="357.60782"
     cy="225.92931"
     r="10.66463"
     fill="#bc52e8" />
  <path
     d="m 388.20019,90.53791 a -16.282111,16.282111 0 0 1 -16.77249,27.91258 -16.28,16.28 0 0 0 11.9092,-29.8527 -16.28211,16.28211 0 0 1 4.86329,1.94012 z"
     fill="#231f20"
     opacity="0.2"
     style="isolation:isolate"
     id="path52" />
  <path
     d="m 427.90682,112.83388 c -5.74562,25.15687 -49.16855,53.14674 -61.56025,100.33571 a -69.06074,69.06074 0 0 1 -6.87746,-7.53474 c 13.92474,-44.35631 54.64494,-71.30876 60.19629,-95.61482 4.96849,-21.75442 -8.98817,-42.429 -29.01462,-51.16258 24.24203,6.09397 42.88221,29.34255 37.25604,53.97643 z"
     fill="#231f20"
     opacity="0.2"
     style="isolation:isolate"
     id="path54" />
  <path
     d="m 231.24542,121.10557 a -37.4925,37.4925 0 0 0 -41.45875,33.05369 c -2.321,20.576 8.51909,65.25748 28.28279,83.75375 9.30575,-35.43731 41.91488,-56.45672 46.22965,-75.34869 4.61047,-20.18673 -12.47765,-39.13775 -33.05369,-41.45875 z"
     fill="#bc52e8"
     id="path56" />
  <circle
     id="b2d5ab8a-e71c-4a1a-aadf-98f8ab95825b"
     data-name="b262ea8c-1946-46c9-a449-3a1996c39394"
     cx="224.41156"
     cy="154.62073"
     r="12.22754"
     fill="#ffffff" />
  <circle
     id="bac33ac8-32b5-423c-9bc5-6c03ceb8d8dc"
     data-name="bcc29a3a-8123-4529-80aa-6f70df2823cf"
     cx="211.55487"
     cy="247.53462"
     r="8.00877"
     fill="#bc52e8" />
  <path
     d="m 234.52865,145.86032 a -12.227304,12.227304 0 1 1 -12.59557,20.96138 -12.22574,12.22574 0 0 0 8.9434,-22.41835 -12.22721,12.22721 0 0 1 3.65217,1.45697 z"
     fill="#231f20"
     opacity="0.2"
     style="isolation:isolate"
     id="path60" />
  <path
     d="m 264.34698,162.60383 c -4.31476,18.892 -36.9239,39.91138 -46.22964,75.34869 a -51.86155,51.86155 0 0 1 -5.16474,-5.65834 c 10.457,-33.31006 41.03648,-53.55043 45.20536,-71.80345 3.73116,-16.33682 -6.74982,-31.8627 -21.789,-38.42135 18.20494,4.57636 32.20312,22.03525 27.97802,40.53445 z"
     fill="#231f20"
     opacity="0.2"
     style="isolation:isolate"
     id="path62" />
  <polygon
     points="594.251,512.27 614.066,512.271 614.063,564.054 600.638,564.054 "
     fill="#a0616a"
     id="polygon64"
     transform="translate(1.0001981e-5)" />
  <path
     d="m 621.28549,589.54567 h -9.52641 l -1.70042,-8.99408 -4.355,8.99408 h -25.26642 a -5.67965,5.67965 0 0 1 -3.22736,-10.35347 l 20.177,-13.93494 v -9.0927 l 21.22264,1.2667 z"
     fill="#2f2e41"
     id="path66" />
  <polygon
     points="542.251,512.27 562.066,512.271 562.063,564.054 548.638,564.054 "
     fill="#a0616a"
     id="polygon68"
     transform="translate(1.0001981e-5)" />
  <path
     d="m 569.28549,589.54567 h -9.52641 l -1.70042,-8.99408 -4.355,8.99408 h -25.26642 a -5.67965,5.67965 0 0 1 -3.22736,-10.35347 l 20.177,-13.93494 v -9.0927 l 21.22264,1.2667 z"
     fill="#2f2e41"
     id="path70" />
  <path
     d="m 511.05893,427.33301 c 2.56915,3.85376 30.51884,109.79348 30.51884,109.79348 l 24.78267,2.8261 -2.94167,-26.65516 -4.49613,-47.1699 -6.96244,-31.48522 c 0,0 24.58692,-55.95658 26.1413,-60.41406 l 1.10473,-3.19861 7.68185,69.71445 a -19.577,19.577 0 0 1 1.16894,7.78459 c -0.23122,4.35477 4.1364,69.86859 4.1364,69.86859 l 2.09977,23.49506 21.23324,2.94958 8.61465,-40.65224 c 7.19365,-13.20558 3.07,-60.13148 0.12843,-64.49911 -2.94157,-4.36763 -1.77275,-34.78661 -1.77275,-34.78661 3.75647,-1.32184 26.15662,-77.70611 14.95252,-77.25506 0.71936,-4.07209 1.28453,-7.70751 1.28453,-7.70751 l -19.44863,-15.68483 -48.67284,-12.65291 -12.27964,-5.89628 c 0,0 -21.93185,40.55432 -21.71349,42.57113 a -11.21429,11.21429 0 0 1 -1.65709,7.3093 l -22.14331,74.10779 c 0,0 -4.35473,13.74517 -1.75988,17.63743 z"
     fill="#2f2e41"
     id="path72" />
  <path
     d="m 633.34129,162.14749 -7.74321,-16.44013 -26.35436,1.01288 -8.59627,17.10337 c 0,0 -24.56687,29.34271 -25.362,38.88375 -1,12 7.31164,70.81225 -1,67 0,0 -19.59459,23 -8,23 11.59459,0 64.04242,32.924 67.48383,36.62652 3.44141,3.70252 18.80446,6.10321 17.51617,-1.62652 -1.28829,-7.72973 -7.9442,-49.53382 -7.9442,-49.53382 l 18.01876,-65.733 c 5.18564,-14.19171 6.79951,-30.11048 -4.923,-39.64345 z"
     fill="#cccccc"
     id="path74" />
  <path
     d="m 535.72216,113.7598 a -28.8805,28.8805 0 0 0 -37.49835,16.18769 c -5.88478,14.825 -6.86,50.22813 4.09122,67.97179 14.08087,-24.45936 42.56848,-33.49094 49.59479,-46.6611 7.50786,-14.0728 -1.36268,-31.61359 -16.18766,-37.49838 z"
     fill="#bc52e8"
     id="path76" />
  <circle
     id="f50692ea-d13f-4759-b5e2-05248e17533e"
     data-name="b262ea8c-1946-46c9-a449-3a1996c39394"
     cx="523.86725"
     cy="137.29013"
     r="9.4188805"
     fill="#ffffff" />
  <circle
     id="aec6a1c4-a00c-42b6-a49d-0158b63ca54a"
     data-name="bcc29a3a-8123-4529-80aa-6f70df2823cf"
     cx="495.52762"
     cy="203.75403"
     r="6.1691699"
     fill="#bc52e8" />
  <path
     d="m 533.15825,132.82375 a -9.41871,9.41871 0 0 1 -13.59978,13.03434 -9.4175,9.4175 0 0 0 11.17966,-14.8556 -9.41862,9.41862 0 0 1 2.42012,1.82126 z"
     fill="#231f20"
     opacity="0.2"
     style="isolation:isolate"
     id="path80" />
  <path
     d="m 551.93742,151.2972 c -7.0263,13.17015 -35.51393,22.20174 -49.59479,46.6611 a -39.949,39.949 0 0 1 -2.69508,-5.24993 c 14.50656,-22.64545 41.328,-31.50828 48.11674,-44.233 6.076,-11.3889 1.42413,-25.0481 -8.42863,-32.96342 12.6066,7.08188 19.482,22.88891 12.60176,35.78525 z"
     fill="#231f20"
     opacity="0.2"
     style="isolation:isolate"
     id="path82" />
  <path
     d="m 492.74735,201.62981 a -10.01609,10.01609 0 0 1 12.03458,9.542 l 21.36828,8.20224 -1.81735,14.20115 -30.01347,-12.007 a -10.07034,10.07034 0 0 1 -1.572,-19.93845 z"
     fill="#a0616a"
     id="path84" />
  <path
     d="m 642.05323,172.36502 v 0 a -20.02625,20.02625 0 0 0 -27.56523,6.71925 l -30.67136,50.64907 -69.34636,-16.43772 -6.31772,17.34458 88.80518,42.06574 44.97713,-71.63724 c 6.73402,-9.46321 10.03158,-22.65167 0.11836,-28.70368 z"
     fill="#cccccc"
     id="path86" />
  <path
     d="M 643.19856,110.29295 A -29.82287,29.82287 0 1 1 591.90323,89.6077 l 0.14314,-0.143 c 0.2386,-0.25061 0.4772,-0.50108 0.72773,-0.73975 a -0.01167,0.01167 0 0 0 0.0119,-0.01194 c 0.31017,-0.28629 0.62034,-0.57258 0.94245,-0.84692 a -29.815,29.815 0 0 1 49.47014,22.42685 z"
     fill="#2f2e41"
     id="path88" />
  <circle
     cx="606.0282"
     cy="117.1931"
     r="25.00775"
     fill="#9e616a"
     id="circle90" />
  <path
     d="m 632.58432,124.32486 -4.14356,-0.73193 a -11.55433,11.55433 0 0 1 -9.30469,-9.31739 l -4.043,6.77588 -0.17675,0.0586 c -9.63282,3.19824 -19.65528,2.2417 -30.63379,-2.92041 a -85.46475,85.46475 0 0 1 -9.11817,-5.02735 l -0.21679,-0.13525 -0.0176,-0.2544 c -0.55957,-8.13525 1.26562,-14.93164 5.1416,-19.1372 a -15.41707,15.41707 0 0 1 11.63379,-4.84961 -0.95727,0.95727 0 0 0 0.41309,-0.228 c 0.0557,-0.041 0.11132,-0.08154 0.167,-0.12012 v -0.042 l 0.28711,-0.13525 c 0.61718,-0.29 1.24609,-0.56787 1.875,-0.82178 a -28.19911,28.19911 0 0 1 29.44824,5.708 c 7.70312,7.354 11.23633,19.69531 8.792,30.71093 z"
     fill="#2f2e41"
     id="path92" />
  <path
     d="m 685.33085,145.63159 c -8.51007,-4.39247 2.43483,-20.33442 0.23554,-29.65523 -2.19937,-9.32081 -18.037,-12.31871 -19.04593,-21.84222 -1.00893,-9.52351 -3.38245,-19.346 -9.6668,-26.57249 -4.01568,-4.61774 -9.93278,-8.02669 -16.02492,-7.44829 a -14.40868,14.40868 0 0 0 -12.62826,17.79207 c -1.73455,-2.45776 -6.22341,-1.92509 -7.33449,0.87052 -0.98788,2.48528 1.19437,5.49568 3.76252,5.71556 3.36046,4.15 7.2086,8.55427 12.47325,9.39144 a -5.68063,5.68063 0 0 0 4.84076,-1.11734 c 1.23856,-1.18942 1.33489,-3.56739 -0.13434,-4.45625 6.61615,2.62814 10.49509,9.78155 11.47678,16.83259 0.98162,7.051 -0.3765,14.18523 -1.27148,21.24778 -0.89498,7.06255 -1.28057,14.492 1.4886,21.05045 3.27178,7.74885 10.80453,13.30263 19.02518,15.0837 8.22065,1.78107 16.97552,0.0403 24.4166,-3.88148 7.44108,-3.92212 13.64622,-9.90941 18.71523,-16.62188 -8.73171,6.20018 -20.81208,8.52297 -30.32824,3.61107 z"
     fill="#2f2e41"
     id="path94" />
  <path
     d="m 631.51995,123.62965 c 0,0 -7.408,-27.65168 -39.16341,-34.03389 -0.0358,-0.01179 -0.15508,-0.05955 -0.31017,-0.131 -0.0954,-0.05971 -0.21472,-0.11941 -0.334,-0.179 0.35786,-0.20285 0.70378,-0.38167 1.06171,-0.56078 a -0.01167,0.01167 0 0 0 0.0119,-0.01194 c 0.31017,-0.28629 0.62034,-0.57258 0.94245,-0.84692 l 0.90663,0.03582 c 0,0 31.86272,-5.04603 36.88492,35.72771 z"
     fill="#fd6584"
     id="path96" />
  <polygon
     points="567.364,224.385 599.671,239.273 614.934,212.357 596.999,233.136 "
     opacity="0.2"
     id="polygon98"
     transform="translate(1.0001981e-5)" />
  <path
     d="m 722.58568,591.11164 -275.75,0.30734 a -1.19069,1.19069 0 0 1 0,-2.38137 l 275.75,-0.30733 a -1.19068,1.19068 0 1 1 0,2.38136 z"
     fill="#cacaca"
     id="path100" />
  <path
     d="m 734.68948,406.07191 q -19.36816,0 -42.45654,-1.46387 C 612.61917,399.55238 509.49515,381.97523 401.85694,355.11586 294.21921,328.25649 194.92673,295.32191 122.27145,262.38149 86.87888,246.33462 59.7153,231.14516 41.5361,217.23403 c -19.24707,-14.727 -27.666,-27.564 -25.02392,-38.15283 5.148,-20.62891 50.731,-25.14209 88.064,-25.29541 l 0.0127,3 c -51.26807,0.21045 -81.51367,8.38672 -85.16553,23.022 -4.65185,18.64014 33.28662,47.74072 104.08691,79.84131 72.49561,32.86813 171.60547,65.73923 279.07322,92.55661 107.46728,26.81641 210.40136,44.36328 289.83984,49.4082 77.57861,4.92774 124.74316,-2.9375 129.39453,-21.57812 3.86182,-15.47657 -21.59814,-38.27539 -71.68945,-64.19825 l 1.3789,-2.66406 c 36.397,18.83594 78.64551,45.85156 73.22168,67.58887 -2.64251,10.58887 -16.1054,17.96484 -40.01507,21.92285 -13.62941,2.25585 -30.37013,3.38671 -50.02443,3.38671 z"
     fill="#bc52e8"
     id="path102" />
</svg>
